<mxfile host="app.diagrams.net" modified="2021-11-17T02:38:35.646Z" agent="5.0 (Windows NT 10.0; Win64; x64) AppleWebKit/537.36 (KHTML, like Gecko) Chrome/95.0.4638.69 Safari/537.36" etag="1O8DnMbfA1EDOO_Fk1VK" version="15.7.4" type="github">
  <diagram id="X1jKstU6HtwFh5sBtJ2j" name="Page-1">
    <mxGraphModel dx="1673" dy="934" grid="1" gridSize="10" guides="1" tooltips="1" connect="1" arrows="1" fold="1" page="1" pageScale="1" pageWidth="850" pageHeight="1100" math="0" shadow="0">
      <root>
        <mxCell id="0" />
        <mxCell id="1" parent="0" />
        <mxCell id="Tqxd-IAycwRH-xhvut5F-3" value="" style="edgeStyle=orthogonalEdgeStyle;rounded=0;orthogonalLoop=1;jettySize=auto;html=1;" edge="1" parent="1" source="Tqxd-IAycwRH-xhvut5F-1" target="Tqxd-IAycwRH-xhvut5F-2">
          <mxGeometry relative="1" as="geometry" />
        </mxCell>
        <mxCell id="Tqxd-IAycwRH-xhvut5F-1" value="User" style="shape=umlActor;verticalLabelPosition=bottom;verticalAlign=top;html=1;outlineConnect=0;" vertex="1" parent="1">
          <mxGeometry x="90" y="590" width="30" height="60" as="geometry" />
        </mxCell>
        <mxCell id="Tqxd-IAycwRH-xhvut5F-5" value="" style="edgeStyle=orthogonalEdgeStyle;rounded=0;orthogonalLoop=1;jettySize=auto;html=1;" edge="1" parent="1" source="Tqxd-IAycwRH-xhvut5F-2" target="Tqxd-IAycwRH-xhvut5F-4">
          <mxGeometry relative="1" as="geometry" />
        </mxCell>
        <mxCell id="Tqxd-IAycwRH-xhvut5F-2" value="Transaction Request" style="whiteSpace=wrap;html=1;verticalAlign=top;" vertex="1" parent="1">
          <mxGeometry x="155" y="590" width="120" height="60" as="geometry" />
        </mxCell>
        <mxCell id="Tqxd-IAycwRH-xhvut5F-9" value="" style="edgeStyle=orthogonalEdgeStyle;rounded=0;orthogonalLoop=1;jettySize=auto;html=1;" edge="1" parent="1" source="Tqxd-IAycwRH-xhvut5F-4" target="Tqxd-IAycwRH-xhvut5F-8">
          <mxGeometry relative="1" as="geometry" />
        </mxCell>
        <mxCell id="Tqxd-IAycwRH-xhvut5F-4" value="Transaction Broadcast" style="ellipse;whiteSpace=wrap;html=1;verticalAlign=top;" vertex="1" parent="1">
          <mxGeometry x="350" y="650" width="120" height="60" as="geometry" />
        </mxCell>
        <mxCell id="Tqxd-IAycwRH-xhvut5F-6" value="DIgitally Signed Document" style="rhombus;whiteSpace=wrap;html=1;" vertex="1" parent="1">
          <mxGeometry x="350" y="500" width="130" height="90" as="geometry" />
        </mxCell>
        <mxCell id="Tqxd-IAycwRH-xhvut5F-7" value="" style="edgeStyle=orthogonalEdgeStyle;rounded=0;orthogonalLoop=1;jettySize=auto;html=1;exitX=1;exitY=0.5;exitDx=0;exitDy=0;entryX=0;entryY=0.5;entryDx=0;entryDy=0;" edge="1" parent="1" source="Tqxd-IAycwRH-xhvut5F-2" target="Tqxd-IAycwRH-xhvut5F-6">
          <mxGeometry relative="1" as="geometry">
            <mxPoint x="285" y="630" as="sourcePoint" />
            <mxPoint x="360" y="690" as="targetPoint" />
          </mxGeometry>
        </mxCell>
        <mxCell id="Tqxd-IAycwRH-xhvut5F-11" value="" style="edgeStyle=orthogonalEdgeStyle;rounded=0;orthogonalLoop=1;jettySize=auto;html=1;" edge="1" parent="1" source="Tqxd-IAycwRH-xhvut5F-8" target="Tqxd-IAycwRH-xhvut5F-10">
          <mxGeometry relative="1" as="geometry" />
        </mxCell>
        <mxCell id="Tqxd-IAycwRH-xhvut5F-8" value="Nodes Receive Message" style="ellipse;whiteSpace=wrap;html=1;verticalAlign=top;" vertex="1" parent="1">
          <mxGeometry x="350" y="820" width="120" height="60" as="geometry" />
        </mxCell>
        <mxCell id="Tqxd-IAycwRH-xhvut5F-15" value="" style="edgeStyle=orthogonalEdgeStyle;rounded=0;orthogonalLoop=1;jettySize=auto;html=1;fontSize=10;entryX=0;entryY=0.5;entryDx=0;entryDy=0;" edge="1" parent="1" source="Tqxd-IAycwRH-xhvut5F-10" target="Tqxd-IAycwRH-xhvut5F-16">
          <mxGeometry relative="1" as="geometry">
            <mxPoint x="810" y="850" as="targetPoint" />
          </mxGeometry>
        </mxCell>
        <mxCell id="Tqxd-IAycwRH-xhvut5F-10" value="Transaction&lt;br&gt;Verification" style="whiteSpace=wrap;html=1;verticalAlign=top;" vertex="1" parent="1">
          <mxGeometry x="510" y="820" width="120" height="60" as="geometry" />
        </mxCell>
        <mxCell id="Tqxd-IAycwRH-xhvut5F-18" value="" style="edgeStyle=orthogonalEdgeStyle;rounded=0;orthogonalLoop=1;jettySize=auto;html=1;fontSize=12;" edge="1" parent="1" source="Tqxd-IAycwRH-xhvut5F-16" target="Tqxd-IAycwRH-xhvut5F-17">
          <mxGeometry relative="1" as="geometry" />
        </mxCell>
        <mxCell id="Tqxd-IAycwRH-xhvut5F-16" value="&lt;font style=&quot;font-size: 12px&quot;&gt;Await &lt;br&gt;Transaction Time&lt;/font&gt;" style="shape=rhombus;double=1;perimeter=rhombusPerimeter;whiteSpace=wrap;html=1;align=center;fontSize=10;" vertex="1" parent="1">
          <mxGeometry x="670" y="810" width="160" height="80" as="geometry" />
        </mxCell>
        <mxCell id="Tqxd-IAycwRH-xhvut5F-20" value="" style="edgeStyle=orthogonalEdgeStyle;rounded=0;orthogonalLoop=1;jettySize=auto;html=1;fontSize=12;" edge="1" parent="1" source="Tqxd-IAycwRH-xhvut5F-17" target="Tqxd-IAycwRH-xhvut5F-19">
          <mxGeometry relative="1" as="geometry" />
        </mxCell>
        <mxCell id="Tqxd-IAycwRH-xhvut5F-17" value="&lt;font style=&quot;font-size: 12px&quot;&gt;Block Creation&lt;/font&gt;" style="whiteSpace=wrap;html=1;fontSize=10;" vertex="1" parent="1">
          <mxGeometry x="870" y="820" width="120" height="60" as="geometry" />
        </mxCell>
        <mxCell id="Tqxd-IAycwRH-xhvut5F-22" value="" style="edgeStyle=orthogonalEdgeStyle;rounded=0;orthogonalLoop=1;jettySize=auto;html=1;fontSize=12;" edge="1" parent="1" source="Tqxd-IAycwRH-xhvut5F-19" target="Tqxd-IAycwRH-xhvut5F-21">
          <mxGeometry relative="1" as="geometry" />
        </mxCell>
        <mxCell id="Tqxd-IAycwRH-xhvut5F-19" value="&lt;font style=&quot;font-size: 12px&quot;&gt;Block Validation&lt;/font&gt;" style="whiteSpace=wrap;html=1;fontSize=10;" vertex="1" parent="1">
          <mxGeometry x="1030" y="820" width="120" height="60" as="geometry" />
        </mxCell>
        <mxCell id="Tqxd-IAycwRH-xhvut5F-24" value="" style="edgeStyle=orthogonalEdgeStyle;rounded=0;orthogonalLoop=1;jettySize=auto;html=1;fontSize=12;" edge="1" parent="1" source="Tqxd-IAycwRH-xhvut5F-21" target="Tqxd-IAycwRH-xhvut5F-23">
          <mxGeometry relative="1" as="geometry" />
        </mxCell>
        <mxCell id="Tqxd-IAycwRH-xhvut5F-21" value="&lt;font style=&quot;font-size: 12px&quot;&gt;Block Added to the Chain&lt;/font&gt;" style="whiteSpace=wrap;html=1;fontSize=10;" vertex="1" parent="1">
          <mxGeometry x="1180" y="820" width="120" height="60" as="geometry" />
        </mxCell>
        <mxCell id="Tqxd-IAycwRH-xhvut5F-23" value="&lt;font style=&quot;font-size: 12px&quot;&gt;Transaction &lt;br&gt;Complete&lt;/font&gt;" style="ellipse;whiteSpace=wrap;html=1;fontSize=10;" vertex="1" parent="1">
          <mxGeometry x="1330" y="820" width="120" height="60" as="geometry" />
        </mxCell>
      </root>
    </mxGraphModel>
  </diagram>
</mxfile>
